<?xml version="1.0" encoding="utf-8"?>
<!-- Generator: Adobe Illustrator 17.1.0, SVG Export Plug-In . SVG Version: 6.00 Build 0)  -->
<!DOCTYPE svg PUBLIC "-//W3C//DTD SVG 1.1//EN" "http://www.w3.org/Graphics/SVG/1.1/DTD/svg11.dtd">
<svg version="1.1" id="Layer_1" xmlns="http://www.w3.org/2000/svg" xmlns:xlink="http://www.w3.org/1999/xlink" x="0px" y="0px"
	 viewBox="0 0 612 792" enable-background="new 0 0 612 792" xml:space="preserve">
<g>
	<path fill="none" d="M284.6,284.8L284.6,284.8l-12.4,0c-13.4,0-24.2,11.7-24.2,26.2v0.7c0,14.5,10.8,26.2,24.2,26.2h193.6
		c13.4,0,24.2-11.7,24.2-26.2v-0.7c0-14.5-10.8-26.2-24.2-26.2H290c0,0,0,0,0,0H284.6z"/>
	<path fill="#871C1B" d="M284.6,284.8h5.4c0,0,0,0,0,0L284.6,284.8L284.6,284.8z"/>
	<path fill="#871C1B" d="M290,279.8h-5.7c0,0,0,0,0,0L290,279.8C290,279.8,290,279.8,290,279.8z"/>
	<path fill="#871C1B" d="M452.9,279.8h-5.4c0,0,0,0,0,0L452.9,279.8C452.9,279.8,452.9,279.8,452.9,279.8z"/>
	<path fill="#871C1B" d="M447.5,284.8h5.7l0,0L447.5,284.8C447.5,284.8,447.5,284.8,447.5,284.8z"/>
	<path fill="#CC8E45" d="M464,279.8h-11.1h-5.4c-1.4,0-2.5,1.1-2.5,2.5v0.1c0,1.4,1.1,2.5,2.5,2.5h5.7h12.5
		c13.4,0,24.2,11.7,24.2,26.2v0.7c0,14.5-10.8,26.2-24.2,26.2H272.2c-13.4,0-24.2-11.7-24.2-26.2v-0.7c0-14.5,10.8-26.2,24.2-26.2
		h12.4h5.4c1.4,0,2.5-1.1,2.5-2.5v-0.1c0-1.4-1.1-2.5-2.5-2.5h-5.7h-65.5c-16.9,0-30.7,13.7-30.7,30.7v0.8
		c0,16.9,13.7,30.7,30.7,30.7H464c16.9,0,30.7-13.7,30.7-30.7v-0.8C494.7,293.5,480.9,279.8,464,279.8z"/>
	<g>
		<path fill="#E39B54" d="M202.7,277.5c0,0,4.2-2.5,7.5,0.7c3.2,3.2,8.3,10.3,2.4,16c0,0-1.4,0.5-1.9,0.6c-0.5,0.1,0.7-6.7,0.7-6.7
			l-4.8-6.4L202.7,277.5z"/>
		<path fill="#E39B54" d="M210.3,295.5c0,0,0.4,8.2,10.8,17.9c1.7,1.5,3.2,2.4,5,2.1c1.7,1.7-1.8,3.3-1.8,3.3l-9.9-3.2l-7.1-12.1
			v-5.6C207.3,297.9,209,294.3,210.3,295.5z"/>
		<path fill="#E39B54" d="M227.5,314.4c0,0,4.4-4.4,10.7,0.7s5,10.9,5,10.9h-1.1l-3.4-1.2l-4.8-4.9L227.5,314.4z"/>
	</g>
	<path fill="#BC6D29" d="M215.1,325.9c0,0-17.5-7.4-20.9-13.3c-3.4-5.9-1.2-10.1,3.5-10.2c4.6-0.1,13.2,13.7,13.2,13.7L215.1,325.9z
		"/>
	<path fill="#914F22" d="M215.1,325.9c0,0-16.5-15-19.9-30.7c-2.5-10.5,4.9-17.6,7.4-17.7s9.3,1.5,10.9,10.3
		c0.8,5.3-2.4,7.7-3.4,7.7s-2.4,2-0.5,5.2c4,7.3,7.9,13,10.7,14.5c2.8,1.5,4.6,2.3,5.9,0.3c1.3-2.1,12.4-4.8,15.9,10.5
		C215.1,325.9,215.1,325.9,215.1,325.9z"/>
	<g>
		<path fill="#CC8E45" d="M304.8,287.8c-1.2-0.7-2.1-1.7-2.8-2.9s-1-2.7-1-4.2c0-1.6,0.3-3,1-4.2c0.7-1.3,1.6-2.2,2.8-2.9
			c1.2-0.7,2.5-1.1,4-1.1c1.3,0,2.4,0.2,3.4,0.7c1,0.5,1.9,1.2,2.5,2.1l-2.1,2.2c-1-1.2-2.2-1.9-3.6-1.9c-0.9,0-1.7,0.2-2.4,0.6
			c-0.7,0.4-1.2,1-1.6,1.8c-0.4,0.8-0.6,1.7-0.6,2.6c0,1,0.2,1.9,0.6,2.6c0.4,0.8,0.9,1.4,1.6,1.8c0.7,0.4,1.5,0.6,2.4,0.6
			c1.4,0,2.7-0.6,3.6-1.9l2.1,2.2c-0.7,0.9-1.5,1.6-2.6,2.1c-1,0.5-2.2,0.7-3.4,0.7C307.3,288.8,306,288.5,304.8,287.8z"/>
		<path fill="#CC8E45" d="M325.8,277.5c0.9,0.9,1.4,2.3,1.4,4.1v7h-3V287c-0.6,1.1-1.7,1.7-3.4,1.7c-0.9,0-1.6-0.2-2.2-0.5
			c-0.6-0.3-1.1-0.8-1.4-1.3c-0.3-0.6-0.5-1.2-0.5-1.9c0-1.1,0.4-2,1.2-2.7c0.8-0.7,2-1,3.6-1h2.6c0-0.8-0.2-1.4-0.6-1.8
			c-0.4-0.4-1.1-0.6-1.9-0.6c-0.6,0-1.2,0.1-1.7,0.3c-0.6,0.2-1.1,0.5-1.5,0.8l-1.2-2.5c0.6-0.5,1.3-0.8,2.2-1.1
			c0.8-0.3,1.7-0.4,2.6-0.4C323.5,276.1,324.8,276.6,325.8,277.5z M323,285.9c0.4-0.3,0.7-0.7,0.9-1.2v-1.3h-2.2c-1.3,0-2,0.5-2,1.4
			c0,0.5,0.2,0.8,0.5,1.1c0.3,0.3,0.8,0.4,1.3,0.4C322.1,286.4,322.6,286.2,323,285.9z"/>
		<path fill="#CC8E45" d="M330.7,271.7h3.2v16.9h-3.2V271.7z"/>
		<path fill="#CC8E45" d="M337.5,271.7h3.2v16.9h-3.2V271.7z"/>
		<path fill="#CC8E45" d="M361.9,276.3v12.2h-3.1v-1.5c-0.4,0.5-0.9,0.9-1.5,1.2c-0.6,0.3-1.2,0.4-1.9,0.4c-1.5,0-2.6-0.5-3.5-1.4
			c-0.9-0.9-1.3-2.3-1.3-4.1v-6.9h3.2v6.4c0,2,0.7,3,2.2,3c0.8,0,1.4-0.3,1.9-0.8c0.5-0.6,0.7-1.4,0.7-2.5v-6H361.9z"/>
		<path fill="#CC8E45" d="M366.6,288.4c-0.9-0.2-1.6-0.6-2.1-0.9l1.1-2.5c0.5,0.3,1.1,0.6,1.8,0.9c0.7,0.2,1.4,0.3,2.1,0.3
			c1.4,0,2-0.4,2-1.1c0-0.3-0.2-0.6-0.6-0.8s-0.9-0.3-1.7-0.4c-0.9-0.2-1.7-0.3-2.2-0.5c-0.6-0.2-1.1-0.5-1.5-1
			c-0.4-0.5-0.6-1.2-0.6-2.1c0-0.8,0.2-1.5,0.6-2.1c0.4-0.6,1-1.1,1.8-1.4c0.8-0.3,1.7-0.5,2.8-0.5c0.8,0,1.6,0.1,2.3,0.3
			c0.8,0.2,1.4,0.5,1.9,0.8l-1.1,2.5c-1-0.6-2-0.9-3.2-0.9c-0.7,0-1.2,0.1-1.5,0.3c-0.3,0.2-0.5,0.5-0.5,0.8c0,0.4,0.2,0.6,0.6,0.8
			c0.4,0.2,1,0.3,1.8,0.4c0.9,0.2,1.6,0.3,2.2,0.5c0.6,0.2,1.1,0.5,1.5,1c0.4,0.5,0.6,1.2,0.6,2.1c0,0.8-0.2,1.4-0.6,2
			c-0.4,0.6-1,1-1.8,1.4c-0.8,0.3-1.7,0.5-2.8,0.5C368.4,288.7,367.5,288.6,366.6,288.4z"/>
		<path fill="#CC8E45" d="M393.6,277.5c0.8,0.9,1.3,2.3,1.3,4v7h-3.2v-6.5c0-1-0.2-1.7-0.6-2.2c-0.4-0.5-0.9-0.7-1.7-0.7
			c-0.8,0-1.5,0.3-1.9,0.8c-0.5,0.6-0.7,1.4-0.7,2.5v6h-3.2v-12.2h3.1v1.4c0.4-0.5,1-0.9,1.6-1.2c0.6-0.3,1.3-0.4,2.1-0.4
			C391.7,276.1,392.8,276.6,393.6,277.5z"/>
		<path fill="#CC8E45" d="M400.7,287.9c-0.9-0.5-1.7-1.3-2.2-2.2c-0.5-1-0.8-2-0.8-3.3c0-1.2,0.3-2.3,0.8-3.3c0.5-1,1.2-1.7,2.2-2.2
			c0.9-0.5,2-0.8,3.1-0.8c1.2,0,2.2,0.3,3.1,0.8c0.9,0.5,1.6,1.3,2.2,2.2c0.5,1,0.8,2,0.8,3.3c0,1.2-0.3,2.3-0.8,3.3
			c-0.5,1-1.2,1.7-2.2,2.2c-0.9,0.5-2,0.8-3.1,0.8C402.7,288.7,401.6,288.5,400.7,287.9z M405.9,284.9c0.5-0.6,0.8-1.4,0.8-2.5
			c0-1-0.3-1.9-0.8-2.5c-0.5-0.6-1.2-0.9-2-0.9c-0.8,0-1.5,0.3-2,0.9c-0.5,0.6-0.8,1.4-0.8,2.5c0,1,0.3,1.9,0.8,2.5
			c0.5,0.6,1.2,0.9,2,0.9C404.7,285.8,405.3,285.5,405.9,284.9z"/>
		<path fill="#CC8E45" d="M430.2,276.3l-4,12.2h-3.1l-2.5-7.6l-2.6,7.6h-3.1l-4-12.2h3l2.6,8.3l2.7-8.3h2.7l2.6,8.3l2.7-8.3H430.2z"
			/>
		<path fill="#CC8E45" d="M432.4,288.1c-0.4-0.4-0.6-0.9-0.6-1.5s0.2-1.1,0.6-1.4c0.4-0.4,0.8-0.6,1.4-0.6c0.6,0,1.1,0.2,1.4,0.6
			c0.4,0.4,0.6,0.9,0.6,1.4s-0.2,1.1-0.6,1.5c-0.4,0.4-0.8,0.6-1.4,0.6C433.3,288.7,432.8,288.5,432.4,288.1z M431.9,272.6h3.8
			l-0.6,10.4h-2.6L431.9,272.6z"/>
	</g>
	<g>
		<path fill="#1E1E1E" d="M280.2,315.6h-3.5v3.8H274v-3.8h-3.5v-2.7h3.5v-3.8h2.6v3.8h3.5V315.6z"/>
		<path fill="#1E1E1E" d="M294.3,315.4c0.4,0.6,0.6,1.3,0.6,2.2c0,1-0.3,1.8-0.7,2.5c-0.5,0.7-1.2,1.3-2.1,1.7
			c-0.9,0.4-2,0.6-3.1,0.6s-2.2-0.2-3.1-0.6c-0.9-0.4-1.6-1-2.1-1.7c-0.5-0.7-0.7-1.6-0.7-2.5c0-0.8,0.2-1.5,0.6-2.2
			c0.4-0.6,0.9-1.1,1.6-1.5c-0.5-0.4-0.9-0.8-1.2-1.4c-0.3-0.5-0.4-1.2-0.4-1.9c0-0.9,0.2-1.7,0.7-2.4c0.5-0.7,1.1-1.2,1.9-1.6
			c0.8-0.4,1.8-0.5,2.8-0.5c1.1,0,2,0.2,2.9,0.5c0.8,0.4,1.5,0.9,1.9,1.6c0.5,0.7,0.7,1.5,0.7,2.4c0,0.7-0.1,1.3-0.4,1.9
			c-0.3,0.5-0.7,1-1.2,1.4C293.4,314.3,293.9,314.8,294.3,315.4z M290.8,319.1c0.5-0.4,0.7-1,0.7-1.6c0-0.7-0.2-1.2-0.7-1.6
			c-0.5-0.4-1.1-0.6-2-0.6c-0.8,0-1.5,0.2-1.9,0.6c-0.5,0.4-0.7,0.9-0.7,1.6c0,0.7,0.2,1.3,0.7,1.7c0.5,0.4,1.1,0.6,1.9,0.6
			C289.7,319.7,290.3,319.5,290.8,319.1z M287.3,309.4c-0.4,0.4-0.6,0.8-0.6,1.4c0,0.6,0.2,1.1,0.6,1.4c0.4,0.3,0.9,0.5,1.6,0.5
			s1.2-0.2,1.6-0.5c0.4-0.3,0.6-0.8,0.6-1.4c0-0.6-0.2-1.1-0.6-1.4c-0.4-0.3-0.9-0.5-1.6-0.5C288.2,308.8,287.7,309,287.3,309.4z"/>
		<path fill="#1E1E1E" d="M308.5,315.4c0.4,0.6,0.6,1.3,0.6,2.2c0,1-0.3,1.8-0.7,2.5c-0.5,0.7-1.2,1.3-2.1,1.7
			c-0.9,0.4-2,0.6-3.1,0.6c-1.2,0-2.2-0.2-3.1-0.6c-0.9-0.4-1.6-1-2.1-1.7c-0.5-0.7-0.7-1.6-0.7-2.5c0-0.8,0.2-1.5,0.6-2.2
			c0.4-0.6,0.9-1.1,1.6-1.5c-0.5-0.4-0.9-0.8-1.2-1.4c-0.3-0.5-0.4-1.2-0.4-1.9c0-0.9,0.2-1.7,0.7-2.4c0.5-0.7,1.1-1.2,1.9-1.6
			c0.8-0.4,1.8-0.5,2.8-0.5c1.1,0,2,0.2,2.9,0.5c0.8,0.4,1.5,0.9,1.9,1.6c0.5,0.7,0.7,1.5,0.7,2.4c0,0.7-0.1,1.3-0.4,1.9
			c-0.3,0.5-0.7,1-1.2,1.4C307.6,314.3,308.1,314.8,308.5,315.4z M305,319.1c0.5-0.4,0.7-1,0.7-1.6c0-0.7-0.2-1.2-0.7-1.6
			c-0.5-0.4-1.1-0.6-2-0.6c-0.8,0-1.5,0.2-1.9,0.6c-0.5,0.4-0.7,0.9-0.7,1.6c0,0.7,0.2,1.3,0.7,1.7c0.5,0.4,1.1,0.6,1.9,0.6
			C303.9,319.7,304.5,319.5,305,319.1z M301.5,309.4c-0.4,0.4-0.6,0.8-0.6,1.4c0,0.6,0.2,1.1,0.6,1.4c0.4,0.3,0.9,0.5,1.6,0.5
			c0.7,0,1.2-0.2,1.6-0.5c0.4-0.3,0.6-0.8,0.6-1.4c0-0.6-0.2-1.1-0.6-1.4c-0.4-0.3-0.9-0.5-1.6-0.5
			C302.4,308.8,301.9,309,301.5,309.4z"/>
		<path fill="#1E1E1E" d="M320.8,321.4c-0.9-0.6-1.6-1.6-2.2-2.8c-0.5-1.2-0.8-2.7-0.8-4.3c0-1.7,0.3-3.1,0.8-4.3s1.2-2.1,2.2-2.8
			c0.9-0.6,2-1,3.1-1c1.2,0,2.2,0.3,3.1,1c0.9,0.6,1.6,1.6,2.2,2.8c0.5,1.2,0.8,2.7,0.8,4.3c0,1.7-0.3,3.1-0.8,4.3
			c-0.5,1.2-1.2,2.1-2.2,2.8c-0.9,0.6-2,1-3.1,1C322.8,322.4,321.8,322,320.8,321.4z M326,318.1c0.5-0.8,0.7-2.1,0.7-3.8
			c0-1.7-0.2-3-0.7-3.8c-0.5-0.8-1.2-1.2-2-1.2c-0.9,0-1.5,0.4-2,1.2c-0.5,0.8-0.7,2.1-0.7,3.8c0,1.7,0.2,3,0.7,3.8
			c0.5,0.8,1.2,1.2,2,1.2C324.9,319.3,325.5,318.9,326,318.1z"/>
		<path fill="#1E1E1E" d="M342.1,308.2c1.1,1.3,1.7,3.3,1.7,5.8c0,1.8-0.3,3.3-0.9,4.6s-1.4,2.2-2.5,2.9c-1.1,0.7-2.4,1-3.8,1
			c-0.8,0-1.5-0.1-2.2-0.3c-0.7-0.2-1.3-0.5-1.8-0.8l1.2-2.7c0.7,0.5,1.6,0.8,2.7,0.8c1.2,0,2.2-0.4,2.9-1.2
			c0.7-0.8,1.1-1.9,1.1-3.4c-0.9,0.9-2,1.4-3.5,1.4c-0.9,0-1.7-0.2-2.5-0.6c-0.7-0.4-1.3-1-1.8-1.7c-0.4-0.7-0.6-1.6-0.6-2.6
			c0-1,0.2-2,0.7-2.7c0.5-0.8,1.1-1.4,1.9-1.8c0.8-0.4,1.7-0.6,2.7-0.6C339.4,306.2,341,306.9,342.1,308.2z M339.5,312.9
			c0.5-0.4,0.7-1,0.7-1.7c0-0.7-0.2-1.2-0.7-1.7c-0.4-0.4-1-0.6-1.8-0.6c-0.7,0-1.3,0.2-1.7,0.6c-0.4,0.4-0.7,1-0.7,1.7
			c0,0.7,0.2,1.3,0.7,1.7c0.4,0.4,1,0.6,1.8,0.6C338.4,313.6,339,313.3,339.5,312.9z"/>
		<path fill="#1E1E1E" d="M355.5,312.9c0.7,0.4,1.3,1,1.8,1.7c0.4,0.7,0.6,1.6,0.6,2.6c0,1-0.2,2-0.7,2.7c-0.5,0.8-1.1,1.4-1.9,1.8
			c-0.8,0.4-1.7,0.6-2.7,0.6c-2,0-3.5-0.7-4.7-2c-1.1-1.3-1.7-3.3-1.7-5.7c0-1.8,0.3-3.3,0.9-4.6c0.6-1.3,1.5-2.2,2.5-2.9
			c1.1-0.7,2.3-1,3.8-1c0.8,0,1.5,0.1,2.2,0.3c0.7,0.2,1.3,0.5,1.8,0.8l-1.2,2.7c-0.7-0.5-1.6-0.8-2.7-0.8c-1.2,0-2.2,0.4-2.9,1.2
			c-0.7,0.8-1.1,1.9-1.1,3.4c0.8-0.9,2-1.4,3.5-1.4C353.9,312.3,354.8,312.5,355.5,312.9z M354.1,319c0.4-0.4,0.7-1,0.7-1.7
			c0-0.7-0.2-1.3-0.7-1.7c-0.4-0.4-1-0.6-1.8-0.6c-0.7,0-1.3,0.2-1.8,0.7c-0.5,0.4-0.7,1-0.7,1.7c0,0.7,0.2,1.2,0.7,1.7
			c0.4,0.4,1.1,0.6,1.8,0.6C353.1,319.7,353.6,319.5,354.1,319z"/>
		<path fill="#1E1E1E" d="M369.4,314.4c0.7,0.8,1,1.8,1,3c0,0.9-0.2,1.7-0.6,2.5c-0.4,0.8-1.1,1.4-2,1.8c-0.9,0.5-2,0.7-3.3,0.7
			c-1,0-2-0.1-2.9-0.4s-1.8-0.7-2.5-1.2l1.3-2.8c0.5,0.4,1.2,0.8,1.9,1c0.7,0.2,1.4,0.4,2.2,0.4c0.8,0,1.5-0.2,1.9-0.5
			c0.5-0.4,0.7-0.8,0.7-1.5c0-1.3-0.9-1.9-2.7-1.9h-1.5V313l2.9-3.6h-6v-2.9h9.9v2.3l-3.2,4C367.8,313,368.7,313.6,369.4,314.4z"/>
		<path fill="#1E1E1E" d="M382.4,308.2c1.1,1.3,1.7,3.3,1.7,5.8c0,1.8-0.3,3.3-0.9,4.6s-1.4,2.2-2.5,2.9c-1.1,0.7-2.4,1-3.8,1
			c-0.8,0-1.5-0.1-2.2-0.3c-0.7-0.2-1.3-0.5-1.8-0.8l1.2-2.7c0.7,0.5,1.6,0.8,2.7,0.8c1.2,0,2.2-0.4,2.9-1.2
			c0.7-0.8,1.1-1.9,1.1-3.4c-0.9,0.9-2,1.4-3.5,1.4c-0.9,0-1.7-0.2-2.5-0.6c-0.7-0.4-1.3-1-1.8-1.7c-0.4-0.7-0.6-1.6-0.6-2.6
			c0-1,0.2-2,0.7-2.7c0.5-0.8,1.1-1.4,1.9-1.8c0.8-0.4,1.7-0.6,2.7-0.6C379.7,306.2,381.3,306.9,382.4,308.2z M379.7,312.9
			c0.5-0.4,0.7-1,0.7-1.7c0-0.7-0.2-1.2-0.7-1.7c-0.4-0.4-1-0.6-1.8-0.6c-0.7,0-1.3,0.2-1.7,0.6c-0.4,0.4-0.7,1-0.7,1.7
			c0,0.7,0.2,1.3,0.7,1.7c0.4,0.4,1,0.6,1.8,0.6C378.7,313.6,379.3,313.3,379.7,312.9z"/>
		<path fill="#1E1E1E" d="M391.8,306.5v15.6h-3.3v-12.7h-2.8v-2.9H391.8z"/>
		<path fill="#1E1E1E" d="M408.1,318.8h-2.3v3.3h-3.2v-3.3h-7.6v-2.4l6.7-9.9h3.4l-6.2,9.4h3.8v-2.9h3.1v2.9h2.3V318.8z"/>
		<path fill="#1E1E1E" d="M421.4,315.4c0.4,0.6,0.6,1.3,0.6,2.2c0,1-0.3,1.8-0.7,2.5c-0.5,0.7-1.2,1.3-2.1,1.7
			c-0.9,0.4-2,0.6-3.1,0.6c-1.2,0-2.2-0.2-3.1-0.6c-0.9-0.4-1.6-1-2.1-1.7c-0.5-0.7-0.7-1.6-0.7-2.5c0-0.8,0.2-1.5,0.6-2.2
			c0.4-0.6,0.9-1.1,1.6-1.5c-0.5-0.4-0.9-0.8-1.2-1.4c-0.3-0.5-0.4-1.2-0.4-1.9c0-0.9,0.2-1.7,0.7-2.4c0.5-0.7,1.1-1.2,1.9-1.6
			c0.8-0.4,1.8-0.5,2.8-0.5c1.1,0,2,0.2,2.9,0.5c0.8,0.4,1.5,0.9,1.9,1.6c0.5,0.7,0.7,1.5,0.7,2.4c0,0.7-0.1,1.3-0.4,1.9
			c-0.3,0.5-0.7,1-1.2,1.4C420.5,314.3,421,314.8,421.4,315.4z M417.9,319.1c0.5-0.4,0.7-1,0.7-1.6c0-0.7-0.2-1.2-0.7-1.6
			c-0.5-0.4-1.1-0.6-2-0.6c-0.8,0-1.5,0.2-1.9,0.6c-0.5,0.4-0.7,0.9-0.7,1.6c0,0.7,0.2,1.3,0.7,1.7c0.5,0.4,1.1,0.6,1.9,0.6
			C416.8,319.7,417.4,319.5,417.9,319.1z M414.3,309.4c-0.4,0.4-0.6,0.8-0.6,1.4c0,0.6,0.2,1.1,0.6,1.4c0.4,0.3,0.9,0.5,1.6,0.5
			c0.7,0,1.2-0.2,1.6-0.5c0.4-0.3,0.6-0.8,0.6-1.4c0-0.6-0.2-1.1-0.6-1.4c-0.4-0.3-0.9-0.5-1.6-0.5
			C415.3,308.8,414.7,309,414.3,309.4z"/>
		<path fill="#1E1E1E" d="M427.2,321.4c-0.9-0.6-1.6-1.6-2.2-2.8c-0.5-1.2-0.8-2.7-0.8-4.3c0-1.7,0.3-3.1,0.8-4.3s1.2-2.1,2.2-2.8
			c0.9-0.6,2-1,3.1-1c1.2,0,2.2,0.3,3.1,1c0.9,0.6,1.6,1.6,2.2,2.8c0.5,1.2,0.8,2.7,0.8,4.3c0,1.7-0.3,3.1-0.8,4.3
			c-0.5,1.2-1.2,2.1-2.2,2.8c-0.9,0.6-2,1-3.1,1C429.1,322.4,428.1,322,427.2,321.4z M432.4,318.1c0.5-0.8,0.7-2.1,0.7-3.8
			c0-1.7-0.2-3-0.7-3.8c-0.5-0.8-1.2-1.2-2-1.2c-0.9,0-1.5,0.4-2,1.2c-0.5,0.8-0.7,2.1-0.7,3.8c0,1.7,0.2,3,0.7,3.8
			c0.5,0.8,1.2,1.2,2,1.2C431.2,319.3,431.9,318.9,432.4,318.1z"/>
		<path fill="#1E1E1E" d="M451.8,318.8h-2.3v3.3h-3.2v-3.3h-7.6v-2.4l6.7-9.9h3.4l-6.2,9.4h3.8v-2.9h3.1v2.9h2.3V318.8z"/>
		<path fill="#1E1E1E" d="M465.1,315.4c0.4,0.6,0.6,1.3,0.6,2.2c0,1-0.3,1.8-0.7,2.5c-0.5,0.7-1.2,1.3-2.1,1.7
			c-0.9,0.4-2,0.6-3.1,0.6s-2.2-0.2-3.1-0.6c-0.9-0.4-1.6-1-2.1-1.7c-0.5-0.7-0.7-1.6-0.7-2.5c0-0.8,0.2-1.5,0.6-2.2
			c0.4-0.6,0.9-1.1,1.6-1.5c-0.5-0.4-0.9-0.8-1.2-1.4c-0.3-0.5-0.4-1.2-0.4-1.9c0-0.9,0.2-1.7,0.7-2.4c0.5-0.7,1.1-1.2,1.9-1.6
			c0.8-0.4,1.8-0.5,2.8-0.5c1.1,0,2,0.2,2.9,0.5c0.8,0.4,1.5,0.9,1.9,1.6c0.5,0.7,0.7,1.5,0.7,2.4c0,0.7-0.1,1.3-0.4,1.9
			c-0.3,0.5-0.7,1-1.2,1.4C464.2,314.3,464.7,314.8,465.1,315.4z M461.6,319.1c0.5-0.4,0.7-1,0.7-1.6c0-0.7-0.2-1.2-0.7-1.6
			c-0.5-0.4-1.1-0.6-2-0.6c-0.8,0-1.5,0.2-1.9,0.6c-0.5,0.4-0.7,0.9-0.7,1.6c0,0.7,0.2,1.3,0.7,1.7c0.5,0.4,1.1,0.6,1.9,0.6
			C460.5,319.7,461.1,319.5,461.6,319.1z M458.1,309.4c-0.4,0.4-0.6,0.8-0.6,1.4c0,0.6,0.2,1.1,0.6,1.4c0.4,0.3,0.9,0.5,1.6,0.5
			s1.2-0.2,1.6-0.5c0.4-0.3,0.6-0.8,0.6-1.4c0-0.6-0.2-1.1-0.6-1.4c-0.4-0.3-0.9-0.5-1.6-0.5C459,308.8,458.5,309,458.1,309.4z"/>
	</g>
</g>
</svg>
