<?xml version="1.0" encoding="utf-8"?>
<!-- Generator: Adobe Illustrator 17.1.0, SVG Export Plug-In . SVG Version: 6.00 Build 0)  -->
<!DOCTYPE svg PUBLIC "-//W3C//DTD SVG 1.1//EN" "http://www.w3.org/Graphics/SVG/1.1/DTD/svg11.dtd">
<svg version="1.1" id="Layer_1" xmlns="http://www.w3.org/2000/svg" xmlns:xlink="http://www.w3.org/1999/xlink" x="0px" y="0px"
	 viewBox="0 0 612 792" enable-background="new 0 0 612 792" xml:space="preserve">
<g>
	<path d="M305.3,232.2c6.9,0,13.1-2.8,17.6-7.4c4.5-4.6,7.3-10.9,7.3-17.8c0-6.9-2.8-13.3-7.3-17.8c-4.5-4.6-10.7-7.4-17.6-7.4
		c-6.9,0-13.1,2.8-17.6,7.4c-4.5,4.6-7.3,10.9-7.3,17.8c0,6.9,2.8,13.3,7.3,17.8C292.2,229.4,298.4,232.2,305.3,232.2z M290.9,192.4
		c3.7-3.7,8.8-6,14.4-6c5.6,0,10.7,2.3,14.4,6c3.7,3.7,6,8.9,6,14.6c0,5.7-2.3,10.9-6,14.6c-3.7,3.7-8.8,6-14.4,6
		c-5.6,0-10.7-2.3-14.4-6c-3.7-3.7-6-8.9-6-14.6C285,201.3,287.2,196.1,290.9,192.4z"/>
	<path d="M333.1,249.9c-3.6-3.8-7.9-6.8-12.7-9c-4.8-2.1-10-3.3-15.6-3.3c-5.5,0-10.8,1.2-15.6,3.3c-7.2,3.2-13.2,8.5-17.5,15.1
		c-4.3,6.6-6.8,14.7-6.8,23.3v2.3h79.8v-2.3C344.7,267.9,340.3,257.4,333.1,249.9z M279.9,253c3.2-3.4,7-6.1,11.2-7.9
		c4.2-1.9,8.9-2.9,13.7-2.9c4.9,0,9.5,1,13.7,2.9c6.3,2.8,11.7,7.5,15.6,13.4c3.4,5.3,5.6,11.7,6,18.5h-70.6
		C270.1,267.7,273.9,259.2,279.9,253z"/>
</g>
</svg>
