<?xml version="1.0" encoding="utf-8"?>
<!-- Generator: Adobe Illustrator 17.1.0, SVG Export Plug-In . SVG Version: 6.00 Build 0)  -->
<!DOCTYPE svg PUBLIC "-//W3C//DTD SVG 1.1//EN" "http://www.w3.org/Graphics/SVG/1.1/DTD/svg11.dtd">
<svg version="1.1" id="Layer_1" xmlns="http://www.w3.org/2000/svg" xmlns:xlink="http://www.w3.org/1999/xlink" x="0px" y="0px"
	 viewBox="0 0 32 32" enable-background="new 0 0 32 32" xml:space="preserve">
<g>
	<path d="M12.4,20.7c0,0.1,0.1,0.2,0.2,0.2c2.9,0,5.9,0,8.9,0c0,0,0,0,0,0c0.1,0,0.2-0.1,0.2-0.3c0-0.2-0.1-0.3-0.2-0.3
		c-2.9,0-5.9,0-8.7,0c-0.3-1.2-0.6-2.3-1-3.5c-0.2-0.6-0.3-1.3-0.5-1.9c-0.1-0.6-0.3-1.1-0.5-1.8c-0.4-1.5-1.2-4.3-1.2-4.4
		c0-0.1-0.1-0.2-0.2-0.2H9c0-0.3-0.3-0.5-0.5-0.5H5.8c-0.3,0-0.5,0.3-0.5,0.6v0.4c0,0.3,0.2,0.6,0.5,0.6h2.6c0.3,0,0.5-0.2,0.5-0.5
		h0.3c0.2,0.7,0.8,2.9,1.1,4.2c0,0,0,0,0,0c0.2,0.7,0.3,1.2,0.5,1.8c0,0,0,0,0,0c0.2,0.6,0.4,1.3,0.5,1.9
		C11.7,18.3,12.1,19.5,12.4,20.7z"/>
	<ellipse cx="12.7" cy="22.5" rx="1.3" ry="1.4"/>
	<ellipse cx="21.7" cy="22.5" rx="1.3" ry="1.4"/>
	<path d="M14.9,14.8c0,0.1,0,0.2,0,0.3l2.5,3.8c0,0.1,0.1,0.1,0.2,0.1c0.1,0,0.1,0,0.2-0.1l2.5-3.8c0.1-0.1,0.1-0.2,0-0.3
		c0-0.1-0.1-0.1-0.2-0.1h-1V9c0-0.2-0.1-0.3-0.2-0.3h-2.4c-0.1,0-0.2,0.1-0.2,0.3v5.7h-1C15.1,14.7,15,14.7,14.9,14.8z"/>
	<path d="M23.8,11.2h-4.2v2.9h0.5c0.3,0,0.5,0.2,0.7,0.5c0.1,0.3,0.1,0.6-0.1,0.9l-2.5,3.8c-0.1,0.2-0.4,0.3-0.6,0.3
		c-0.2,0-0.5-0.1-0.6-0.3c0,0-2.7-4.4-2.6-4.7c0.1-0.3,0.4-0.5,0.7-0.5h0.5v-2.9h-4.2c-0.3,0-0.5,0.3-0.5,0.6v0.4
		c0,0.3,0.2,0.6,0.5,0.6h0.2l1.8,7.1c0,0.1,0.1,0.2,0.2,0.2h7.8c0.1,0,0.2-0.1,0.2-0.2l1.8-7.1h0.2c0.3,0,0.5-0.3,0.5-0.6v-0.4
		C24.3,11.4,24.1,11.2,23.8,11.2z"/>
</g>
</svg>
