<?xml version="1.0" encoding="utf-8"?>
<!-- Generator: Adobe Illustrator 17.1.0, SVG Export Plug-In . SVG Version: 6.00 Build 0)  -->
<!DOCTYPE svg PUBLIC "-//W3C//DTD SVG 1.1//EN" "http://www.w3.org/Graphics/SVG/1.1/DTD/svg11.dtd">
<svg version="1.1" id="Layer_1" xmlns="http://www.w3.org/2000/svg" xmlns:xlink="http://www.w3.org/1999/xlink" x="0px" y="0px"
	 viewBox="0 0 612 792" enable-background="new 0 0 612 792" xml:space="preserve">
<g>
	<path d="M251.8,287.3c0.2,0.7,0.9,1.2,1.7,1.2c21.1,0,42.9,0,64.6,0.1c0,0,0,0,0,0c1,0,1.8-0.8,1.8-1.8c0-1-0.8-1.8-1.8-1.8
		c-21.2-0.1-42.6-0.1-63.3-0.1c-2.5-7.5-4.6-14.7-6.9-22.4c-1.2-4-2.5-8.2-3.8-12.4c-1-3.8-2.1-7.2-3.6-11.6
		c-2.9-9.5-8.6-28-8.7-28.2c-0.2-0.7-0.9-1.2-1.7-1.2h-3.4c-0.3-1.8-1.9-3.2-3.9-3.2h-19c-2.2,0-4,1.7-4,3.8v2.4
		c0,2.1,1.8,3.8,4,3.8h19c2,0,3.6-1.4,3.9-3.2h2.1c1.3,4.3,5.9,19,8.3,27c0,0,0,0,0,0c1.4,4.3,2.5,7.8,3.5,11.5c0,0,0,0,0,0
		c1.3,4.2,2.5,8.4,3.8,12.4C246.7,271.4,249.1,279.4,251.8,287.3z"/>
	<path d="M334,225.6h-89.1c-2.2,0-4,1.7-4,3.8v2.4c0,2.1,1.8,3.8,4,3.8h1.3l13.4,45.5c0.2,0.8,0.9,1.3,1.7,1.3h56.5
		c0.8,0,1.5-0.5,1.7-1.3l13.4-45.5h1.3c2.2,0,4-1.7,4-3.8v-2.4C338,227.3,336.2,225.6,334,225.6z"/>
	<path d="M253.4,289.2c-5,0-9.2,4.1-9.2,9.2c0,5,4.1,9.2,9.2,9.2c5,0,9.2-4.1,9.2-9.2C262.6,293.3,258.5,289.2,253.4,289.2z"/>
	<path d="M319,289.2c-5,0-9.2,4.1-9.2,9.2c0,5,4.1,9.2,9.2,9.2c5,0,9.2-4.1,9.2-9.2C328.2,293.3,324.1,289.2,319,289.2z"/>
	<path d="M289.5,237.4c-11,0-19.9,8.9-19.9,19.9c0,11,8.9,19.9,19.9,19.9c11,0,19.9-8.9,19.9-19.9
		C309.4,246.4,300.4,237.4,289.5,237.4z M289.5,273.7c-9,0-16.4-7.3-16.4-16.4c0-9,7.3-16.4,16.4-16.4c9,0,16.4,7.3,16.4,16.4
		C305.8,266.3,298.5,273.7,289.5,273.7z"/>
	<path d="M294.8,245.1c0-1-0.8-1.8-1.8-1.8h-7.2c-1,0-1.8,0.8-1.8,1.8v6.9h-6.9c-1,0-1.8,0.8-1.8,1.8v7.2c0,1,0.8,1.8,1.8,1.8h6.9
		v6.9c0,1,0.8,1.8,1.8,1.8h7.2c1,0,1.8-0.8,1.8-1.8v-6.9h6.9c1,0,1.8-0.8,1.8-1.8v-7.2c0-1-0.8-1.8-1.8-1.8h-6.9V245.1z
		 M299.9,255.5v3.7h-6.9c-1,0-1.8,0.8-1.8,1.8v6.9h-3.7v-6.9c0-1-0.8-1.8-1.8-1.8H279v-3.7h6.9c1,0,1.8-0.8,1.8-1.8v-6.9h3.7v6.9
		c0,1,0.8,1.8,1.8,1.8H299.9z"/>
</g>
</svg>
