<?xml version="1.0" encoding="utf-8"?>
<!-- Generator: Adobe Illustrator 17.1.0, SVG Export Plug-In . SVG Version: 6.00 Build 0)  -->
<!DOCTYPE svg PUBLIC "-//W3C//DTD SVG 1.1//EN" "http://www.w3.org/Graphics/SVG/1.1/DTD/svg11.dtd">
<svg version="1.1" id="Layer_1" xmlns="http://www.w3.org/2000/svg" xmlns:xlink="http://www.w3.org/1999/xlink" x="0px" y="0px"
	 viewBox="0 0 612 792" enable-background="new 0 0 612 792" xml:space="preserve">
<g>
	<path d="M270.2,210.4c1-1,2.4-2.7,3.2-4.5c2.5-6.3,1.4-7.5,1.4-7.5c-1.7-3.6-5.3-8.4-10-13.2c-4.7-4.7-9.6-8.3-13.2-10
		c0,0-5.9-1.8-10.3,2.6c0,0,0,0,0,0c0,0,0,0,0,0l0,0c-0.6,0.6-1.2,1.2-1.7,1.8L270.2,210.4z"/>
	<path d="M332.8,256.4c-1.7-3.6-5.3-8.4-10-13.2c-4.7-4.7-9.6-8.3-13.2-10c0,0-1.2-1.2-7.5,1.4c-1.8,0.7-3.5,2.2-4.5,3.1l30.7,30.7
		c0.6-0.5,1.2-1.1,1.8-1.7h0c0,0,0,0,0,0c0,0,0.1,0,0,0C334.6,262.3,332.8,256.4,332.8,256.4z"/>
	<path d="M294.3,242.1c-1,1.3-2.5,1.8-4.3,1.8c-5.6,0-13.9-5-17.5-8.5c-4.7-4.7-11.9-17.9-6.7-21.8c0.3-0.2,0.6-0.4,0.9-0.6
		l-29.9-29.9c-4.5,6.8-4.3,12.3-4.3,12.3s-0.8,24.8,27.2,52.7c26.5,26.5,50.1,27.2,52.5,27.2c0.1,0,0.2,0,0.2,0s0,0,0.1,0
		c0.7,0,5.9-0.2,12.2-4.3l-29.9-29.9C294.7,241.5,294.5,241.8,294.3,242.1z"/>
</g>
</svg>
